<svg xmlns="http://www.w3.org/2000/svg" width="375" height="47.158" viewBox="0 0 375 47.158">
  <defs>
    <style>
      .cls-1 {
        fill: #2e3192;
      }

      .cls-2 {
        fill: #c1272d;
      }
    </style>
  </defs>
  <g id="Group_201" data-name="Group 201" transform="translate(0 0)">
    <path id="Path_31" data-name="Path 31" class="cls-1" d="M66.2,40.238c-4.2-3.949-6.3-9.749-6.3-17.148,0-7.749-2.25-13.848-6.7-18.048A22.71,22.71,0,0,0,44.3-.007H56.7c.15,0,10-.45,16.748,5.9,4.2,3.949,6.3,9.749,6.3,17.148,0,7.749,2.25,13.848,6.7,18.048a22.71,22.71,0,0,0,8.9,5.049h-12.4C82.795,46.137,72.9,46.587,66.2,40.238Z" transform="translate(-22.103 1.014)"/>
    <path id="Path_32" data-name="Path 32" class="cls-2" d="M150.2,40.238c-4.2-3.949-6.3-9.749-6.3-17.148,0-7.749-2.25-13.848-6.7-18.048a22.71,22.71,0,0,0-8.9-5.049h12.4c.15,0,10-.45,16.748,5.9,4.2,3.949,6.3,9.749,6.3,17.148,0,7.749,2.25,13.848,6.7,18.048a22.71,22.71,0,0,0,8.9,5.049h-12.4C166.795,46.137,156.9,46.587,150.2,40.238Z" transform="translate(-64.109 1.014)"/>
    <path id="Path_33" data-name="Path 33" class="cls-1" d="M234.2,40.238c-4.2-3.949-6.3-9.749-6.3-17.148,0-7.749-2.25-13.848-6.7-18.048a22.71,22.71,0,0,0-8.9-5.049h12.4c.15,0,10-.45,16.748,5.9,4.2,3.949,6.3,9.749,6.3,17.148,0,7.749,2.25,13.848,6.7,18.048a22.711,22.711,0,0,0,8.9,5.049h-12.4C250.795,46.137,240.9,46.587,234.2,40.238Z" transform="translate(-106.114 1.014)"/>
    <path id="Path_34" data-name="Path 34" class="cls-2" d="M318.2,40.238c-4.2-3.949-6.3-9.749-6.3-17.148,0-7.749-2.25-13.848-6.7-18.048a22.71,22.71,0,0,0-8.9-5.049h12.4c.15,0,10-.45,16.748,5.9,4.2,3.949,6.3,9.749,6.3,17.148,0,7.749,2.25,13.848,6.7,18.048a22.711,22.711,0,0,0,8.9,5.049h-12.4C334.795,46.137,324.9,46.587,318.2,40.238Z" transform="translate(-148.12 1.014)"/>
    <path id="Path_35" data-name="Path 35" class="cls-1" d="M402.2,40.238c-4.2-3.949-6.3-9.749-6.3-17.148,0-7.749-2.25-13.848-6.7-18.048a22.711,22.711,0,0,0-8.9-5.049h12.4c.15,0,10-.45,16.748,5.9,4.2,3.949,6.3,9.749,6.3,17.148,0,7.749,2.25,13.848,6.7,18.048a22.71,22.71,0,0,0,8.9,5.049h-12.4C418.795,46.137,408.9,46.587,402.2,40.238Z" transform="translate(-190.125 1.014)"/>
    <path id="Path_36" data-name="Path 36" class="cls-2" d="M486.2,40.238c-4.2-3.949-6.3-9.749-6.3-17.148,0-7.749-2.25-13.848-6.7-18.048a22.711,22.711,0,0,0-8.9-5.049h12.4c.15,0,10-.45,16.748,5.9,4.2,3.949,6.3,9.749,6.3,17.148,0,7.749,2.25,13.848,6.7,18.048a22.71,22.71,0,0,0,8.9,5.049h-12.4C502.795,46.137,492.9,46.587,486.2,40.238Z" transform="translate(-232.131 1.014)"/>
    <path id="Path_37" data-name="Path 37" class="cls-1" d="M570.2,40.238c-4.2-3.949-6.3-9.749-6.3-17.148,0-7.749-2.25-13.848-6.7-18.048a22.711,22.711,0,0,0-8.9-5.049h12.4c.15,0,10-.45,16.748,5.9,4.2,3.949,6.3,9.749,6.3,17.148,0,7.749,2.25,13.848,6.7,18.048a22.71,22.71,0,0,0,8.9,5.049h-12.4C586.795,46.137,576.9,46.587,570.2,40.238Z" transform="translate(-274.136 1.014)"/>
    <path id="Path_38" data-name="Path 38" class="cls-2" d="M654.2,40.238c-4.2-3.949-6.3-9.749-6.3-17.148,0-7.749-2.25-13.848-6.7-18.048a22.709,22.709,0,0,0-8.9-5.049h12.4c.15,0,10-.45,16.748,5.9,4.2,3.949,6.3,9.749,6.3,17.148,0,7.749,2.25,13.848,6.7,18.048a22.713,22.713,0,0,0,8.9,5.049h-12.4C670.795,46.137,660.9,46.587,654.2,40.238Z" transform="translate(-316.142 1.014)"/>
    <path id="Path_39" data-name="Path 39" class="cls-2" d="M18.7,45.18c-.1,0-10,.45-16.748-5.9a18.165,18.165,0,0,1-2.05-2.3v-37A21.277,21.277,0,0,1,9.149,4.935c4.2,3.949,6.3,9.749,6.3,17.148,0,7.749,2.25,13.848,6.7,18.048A22.6,22.6,0,0,0,31.1,45.18Z" transform="translate(0.1 1.014)"/>
    <path id="Path_40" data-name="Path 40" class="cls-1" d="M733.1,60.207a29.39,29.39,0,0,1-1.3-9c0-7.749-2.25-13.848-6.7-18.048a22.713,22.713,0,0,0-8.9-5.049h12.4a24.2,24.2,0,0,1,4.5.3Z" transform="translate(-358.098 -28.1)"/>
  </g>
</svg>
